<svg width="47" height="47" viewBox="0 0 47 47" fill="none" xmlns="http://www.w3.org/2000/svg">
<path fill-rule="evenodd" clip-rule="evenodd" d="M0 23.0728C0 10.3301 10.3301 0 23.0728 0C35.8156 0 46.1457 10.3301 46.1457 23.0728C46.1457 35.8156 35.8156 46.1457 23.0728 46.1457C10.3301 46.1457 0 35.8156 0 23.0728ZM23.0728 11.5364C29.4179 11.5364 34.6092 16.7278 34.6092 23.0728C34.6092 28.841 30.4273 33.744 24.6591 34.6092V26.3895H27.399L27.9758 23.0728H24.8033V20.9098C24.8033 20.0445 25.2359 19.1793 26.678 19.1793H28.12V16.2952C28.12 16.2952 26.8222 16.0068 25.5243 16.0068C22.9286 16.0068 21.1982 17.593 21.1982 20.4771V23.0728H18.3141V26.3895H21.1982V34.465C15.7184 33.5998 11.5364 28.841 11.5364 23.0728C11.5364 16.7278 16.7278 11.5364 23.0728 11.5364Z" fill="black"/>
</svg>
