<svg width="48" height="47" viewBox="0 0 48 47" fill="none" xmlns="http://www.w3.org/2000/svg">
<path d="M24.0196 27.1106C21.8565 27.1106 19.9819 25.3801 19.9819 23.0728C19.9819 20.9097 21.7123 19.0351 24.0196 19.0351C26.1827 19.0351 28.0574 20.7655 28.0574 23.0728C28.0574 25.2359 26.1827 27.1106 24.0196 27.1106Z" fill="black"/>
<path fill-rule="evenodd" clip-rule="evenodd" d="M28.9226 13.2669H19.1166C17.963 13.4111 17.3862 13.5553 16.9536 13.6995C16.3767 13.8437 15.9441 14.1321 15.5115 14.5647C15.1692 14.907 15.0074 15.2494 14.8119 15.6631C14.7604 15.7722 14.7064 15.8865 14.6463 16.0068C14.624 16.0737 14.5982 16.1441 14.5706 16.2195C14.4197 16.6317 14.2137 17.1947 14.2137 18.1698V27.9758C14.3579 29.1294 14.5021 29.7063 14.6463 30.1389C14.7905 30.7157 15.0789 31.1483 15.5115 31.5809C15.8538 31.9233 16.1962 32.085 16.6099 32.2805C16.7191 32.3321 16.8332 32.386 16.9536 32.4462C17.0205 32.4685 17.0909 32.4942 17.1663 32.5218C17.5784 32.6727 18.1415 32.8788 19.1166 32.8788H28.9226C30.0762 32.7346 30.653 32.5904 31.0857 32.4462C31.6625 32.302 32.0951 32.0135 32.5277 31.5809C32.87 31.2386 33.0318 30.8963 33.2273 30.4825C33.2788 30.3734 33.3328 30.2592 33.3929 30.1389C33.4153 30.072 33.441 30.0016 33.4686 29.9261C33.6195 29.514 33.8256 28.951 33.8256 27.9758V18.1698C33.6814 17.0162 33.5372 16.4394 33.3929 16.0068C33.2487 15.43 32.9603 14.9973 32.5277 14.5647C32.1854 14.2224 31.8431 14.0607 31.4293 13.8652C31.3203 13.8137 31.2058 13.7596 31.0857 13.6995C31.0187 13.6772 30.9484 13.6514 30.8729 13.6238C30.4608 13.473 29.8978 13.2669 28.9226 13.2669ZM24.0196 16.872C20.5587 16.872 17.8188 19.6119 17.8188 23.0728C17.8188 26.5338 20.5587 29.2736 24.0196 29.2736C27.4805 29.2736 30.2204 26.5338 30.2204 23.0728C30.2204 19.6119 27.4805 16.872 24.0196 16.872ZM31.8067 16.7278C31.8067 17.5242 31.1611 18.1698 30.3646 18.1698C29.5682 18.1698 28.9226 17.5242 28.9226 16.7278C28.9226 15.9314 29.5682 15.2857 30.3646 15.2857C31.1611 15.2857 31.8067 15.9314 31.8067 16.7278Z" fill="black"/>
<path fill-rule="evenodd" clip-rule="evenodd" d="M0.946777 23.0728C0.946777 10.3301 11.2768 0 24.0196 0C36.7624 0 47.0924 10.3301 47.0924 23.0728C47.0924 35.8156 36.7624 46.1457 24.0196 46.1457C11.2768 46.1457 0.946777 35.8156 0.946777 23.0728ZM19.1166 11.1038H28.9226C30.2204 11.248 31.0857 11.3922 31.8067 11.6806C32.6719 12.1132 33.2487 12.4016 33.9698 13.1227C34.6908 13.8437 35.1234 14.5647 35.4118 15.2857C35.7002 16.0068 35.9886 16.872 35.9886 18.1698V27.9758C35.8444 29.2736 35.7002 30.1389 35.4118 30.8599C34.9792 31.7251 34.6908 32.302 33.9698 33.023C33.2487 33.744 32.5277 34.1766 31.8067 34.465C31.0857 34.7534 30.2204 35.0419 28.9226 35.0419H19.1166C17.8188 34.8976 16.9536 34.7534 16.2325 34.465C15.3673 34.0324 14.7905 33.744 14.0695 33.023C13.3484 32.302 12.9158 31.5809 12.6274 30.8599C12.339 30.1389 12.0506 29.2736 12.0506 27.9758V18.1698C12.1948 16.872 12.339 16.0068 12.6274 15.2857C13.06 14.4205 13.3484 13.8437 14.0695 13.1227C14.7905 12.4016 15.5115 11.969 16.2325 11.6806C16.9536 11.3922 17.8188 11.1038 19.1166 11.1038Z" fill="black"/>
</svg>
