<svg width="48" height="47" viewBox="0 0 48 47" fill="none" xmlns="http://www.w3.org/2000/svg">
<path fill-rule="evenodd" clip-rule="evenodd" d="M0.973389 23.0728C0.973389 10.3301 11.3034 0 24.0462 0C36.789 0 47.119 10.3301 47.119 23.0728C47.119 35.8156 36.789 46.1457 24.0462 46.1457C11.3034 46.1457 0.973389 35.8156 0.973389 23.0728ZM12.7982 19.1793V34.6092H17.7012V19.1793H12.7982ZM12.5098 14.2763C12.5098 15.8626 13.6634 17.0162 15.2497 17.0162C16.836 17.0162 17.9896 15.8626 17.9896 14.2763C17.9896 12.6901 16.836 11.5364 15.2497 11.5364C13.8077 11.5364 12.5098 12.6901 12.5098 14.2763ZM30.6797 34.6092H35.2942V25.0917C35.2942 20.3329 32.4101 18.7467 29.6702 18.7467C27.2187 18.7467 25.4883 20.3329 25.0557 21.3424V19.1793H20.4411V34.6092H25.3441V26.3896C25.3441 24.2265 26.7861 23.0728 28.2282 23.0728C29.6702 23.0728 30.6797 23.7939 30.6797 26.2453V34.6092Z" fill="black"/>
</svg>
