<svg width="48" height="47" viewBox="0 0 48 47" fill="none" xmlns="http://www.w3.org/2000/svg">
<g style="mix-blend-mode:darken">
<path fill-rule="evenodd" clip-rule="evenodd" d="M0.933502 23.0728C0.933502 10.3301 11.2636 0 24.0063 0C36.7491 0 47.0792 10.3301 47.0792 23.0728C47.0792 35.8156 36.7491 46.1457 24.0063 46.1457C11.2636 46.1457 0.933502 35.8156 0.933502 23.0728ZM12.4699 23.0728C12.4699 16.7278 17.6613 11.5364 24.0063 11.5364C30.3514 11.5364 35.5427 16.7278 35.3985 22.496C35.3985 28.841 30.2071 34.0324 23.8621 34.0324C22.7085 34.0324 21.5549 33.8882 20.5454 33.5998C20.978 32.8788 21.4106 32.0135 21.699 31.1483C21.8432 30.5715 22.5643 27.9758 22.5643 27.9758C22.9969 28.6968 24.1505 29.4179 25.4484 29.4179C29.1977 29.4179 31.6492 25.9569 31.6492 21.4866C31.6492 18.0256 28.7651 14.8531 24.2947 14.8531C18.8149 14.8531 16.075 18.7467 16.075 22.0634C16.075 24.0823 16.7961 25.8127 18.3823 26.5338C18.6707 26.678 18.8149 26.5338 18.9592 26.2453C19.1034 26.1011 19.2476 25.5243 19.2476 25.3801C19.3495 25.1762 19.3073 25.1164 19.2228 24.997C19.1878 24.9475 19.1456 24.8878 19.1034 24.8033C18.6707 24.2265 18.3823 23.5054 18.3823 22.496C18.3823 19.6119 20.5454 17.0162 24.0063 17.0162C27.0346 17.0162 28.7651 18.8909 28.7651 21.4866C28.7651 24.9475 27.3231 27.6874 25.16 27.6874C23.8621 27.6874 22.9969 26.678 23.2853 25.5243C23.4057 24.9224 23.6015 24.2953 23.7887 23.6955C24.05 22.8585 24.2947 22.0746 24.2947 21.4866C24.2947 20.4771 23.7179 19.7561 22.7085 19.7561C21.5549 19.7561 20.5454 21.054 20.5454 22.7844C20.5454 23.9381 20.978 24.6591 20.978 24.6591C20.978 24.6591 19.8244 29.9947 19.536 31.0041C19.3918 31.8693 19.3918 32.7344 19.3918 33.5996C15.354 31.8691 12.4699 27.8316 12.4699 23.0728Z" fill="black"/>
</g>
</svg>
