<svg aria-hidden="true" style="position: absolute; width: 0; height: 0; overflow: hidden;" version="1.1" xmlns="http://www.w3.org/2000/svg" xmlns:xlink="http://www.w3.org/1999/xlink">
<defs>
<symbol id="icon-instagram" viewBox="0 0 33 32">
<path d="M16.354 18.458c-1.473 0-2.749-1.178-2.749-2.749 0-1.473 1.178-2.749 2.749-2.749 1.473 0 2.749 1.178 2.749 2.749 0 1.473-1.276 2.749-2.749 2.749z"></path>
<path d="M19.692 9.033c0.664 0 1.047 0.14 1.328 0.243 0.051 0.019 0.099 0.036 0.145 0.052 0.082 0.041 0.16 0.078 0.234 0.113 0.282 0.133 0.515 0.243 0.748 0.476 0.295 0.295 0.491 0.589 0.589 0.982 0.098 0.295 0.196 0.687 0.295 1.473v6.676c0 0.664-0.14 1.047-0.243 1.328-0.019 0.051-0.036 0.099-0.052 0.145-0.041 0.082-0.078 0.16-0.113 0.234-0.133 0.282-0.243 0.515-0.476 0.748-0.295 0.295-0.589 0.491-0.982 0.589-0.295 0.098-0.687 0.196-1.473 0.295h-6.676c-0.664 0-1.047-0.14-1.328-0.243-0.051-0.019-0.099-0.036-0.145-0.051-0.082-0.041-0.16-0.078-0.234-0.113-0.282-0.133-0.515-0.243-0.748-0.476-0.295-0.295-0.491-0.589-0.589-0.982-0.098-0.295-0.196-0.687-0.295-1.473v-6.676c0-0.664 0.14-1.047 0.243-1.328 0.019-0.051 0.036-0.099 0.052-0.145 0.041-0.082 0.078-0.16 0.113-0.234 0.133-0.282 0.243-0.515 0.476-0.748 0.295-0.295 0.589-0.491 0.982-0.589 0.295-0.098 0.687-0.196 1.473-0.295h6.676zM16.354 11.487c-2.356 0-4.222 1.865-4.222 4.222s1.865 4.222 4.222 4.222 4.222-1.865 4.222-4.222c0-2.356-1.865-4.222-4.222-4.222zM21.656 11.389c0-0.542-0.44-0.982-0.982-0.982s-0.982 0.44-0.982 0.982 0.44 0.982 0.982 0.982c0.542 0 0.982-0.44 0.982-0.982z"></path>
<path d="M0.645 15.709c0 8.676 7.033 15.709 15.709 15.709s15.709-7.033 15.709-15.709c0-8.676-7.033-15.709-15.709-15.709s-15.709 7.033-15.709 15.709zM13.016 7.56h6.676c0.884 0.098 1.473 0.196 1.964 0.393 0.589 0.295 0.982 0.491 1.473 0.982s0.785 0.982 0.982 1.473c0.196 0.491 0.393 1.080 0.393 1.964v6.676c-0.098 0.884-0.196 1.473-0.393 1.964-0.295 0.589-0.491 0.982-0.982 1.473s-0.982 0.785-1.473 0.982-1.080 0.393-1.964 0.393h-6.676c-0.884-0.098-1.473-0.196-1.964-0.393-0.589-0.295-0.982-0.491-1.473-0.982s-0.786-0.982-0.982-1.473-0.393-1.080-0.393-1.964v-6.676c0.098-0.884 0.196-1.473 0.393-1.964 0.295-0.589 0.491-0.982 0.982-1.473s0.982-0.786 1.473-0.982c0.491-0.196 1.080-0.393 1.964-0.393z"></path>
</symbol>
<symbol id="icon-linkedin" viewBox="0 0 33 32">
<path d="M0.663 15.709c0-8.676 7.033-15.709 15.709-15.709s15.709 7.033 15.709 15.709c0 8.676-7.033 15.709-15.709 15.709s-15.709-7.033-15.709-15.709zM8.714 13.058v10.505h3.338v-10.505h-3.338zM8.517 9.72c0 1.080 0.785 1.865 1.865 1.865s1.865-0.785 1.865-1.865c0-1.080-0.785-1.865-1.865-1.865-0.982 0-1.865 0.786-1.865 1.865zM20.888 23.564h3.142v-6.48c0-3.24-1.964-4.32-3.829-4.32-1.669 0-2.847 1.080-3.142 1.767v-1.473h-3.142v10.505h3.338v-5.596c0-1.473 0.982-2.258 1.964-2.258s1.669 0.491 1.669 2.16v5.695z"></path>
</symbol>
<symbol id="icon-pinterest" viewBox="0 0 33 32">
<path d="M0.636 15.709c0 8.676 7.033 15.709 15.709 15.709s15.709-7.033 15.709-15.709c0-8.676-7.033-15.709-15.709-15.709s-15.709 7.033-15.709 15.709zM8.49 15.709c0-4.32 3.535-7.855 7.855-7.855s7.855 3.535 7.756 7.462c0 4.32-3.535 7.855-7.855 7.855-0.785 0-1.571-0.098-2.258-0.295 0.295-0.491 0.589-1.080 0.785-1.669 0.098-0.393 0.589-2.16 0.589-2.16 0.295 0.491 1.080 0.982 1.964 0.982 2.553 0 4.222-2.356 4.222-5.4 0-2.356-1.964-4.516-5.007-4.516-3.731 0-5.596 2.651-5.596 4.909 0 1.375 0.491 2.553 1.571 3.044 0.196 0.098 0.295 0 0.393-0.196 0.098-0.098 0.196-0.491 0.196-0.589 0.069-0.139 0.041-0.18-0.017-0.261-0.024-0.034-0.053-0.074-0.081-0.132-0.295-0.393-0.491-0.884-0.491-1.571 0-1.964 1.473-3.731 3.829-3.731 2.062 0 3.24 1.276 3.24 3.044 0 2.356-0.982 4.222-2.455 4.222-0.884 0-1.473-0.687-1.276-1.473 0.082-0.41 0.215-0.837 0.343-1.245 0.178-0.57 0.345-1.104 0.345-1.504 0-0.687-0.393-1.178-1.080-1.178-0.785 0-1.473 0.884-1.473 2.062 0 0.786 0.295 1.276 0.295 1.276s-0.785 3.633-0.982 4.32c-0.098 0.589-0.098 1.178-0.098 1.767-2.749-1.178-4.713-3.927-4.713-7.167z"></path>
</symbol>
<symbol id="icon-twitter" viewBox="0 0 33 32">
<path d="M0.672 15.709c0 8.676 7.033 15.709 15.709 15.709s15.709-7.033 15.709-15.709c0-8.676-7.033-15.709-15.709-15.709s-15.709 7.033-15.709 15.709zM22.37 11.291c0.687-0.098 1.276-0.196 1.865-0.491-0.393 0.687-0.982 1.276-1.669 1.669 0.196 4.615-3.142 9.622-9.131 9.622-1.767 0-3.436-0.589-4.909-1.473 1.669 0.196 3.436-0.295 4.615-1.178-1.473 0-2.651-0.982-3.044-2.258 0.491 0.098 0.982 0 1.473-0.098-1.473-0.393-2.553-1.767-2.553-3.24 0.491 0.196 0.982 0.393 1.473 0.393-1.375-0.982-1.865-2.847-0.982-4.32 1.669 1.964 4.025 3.24 6.676 3.338-0.491-1.964 1.080-3.927 3.142-3.927 0.884 0 1.767 0.393 2.356 0.982 0.785-0.196 1.473-0.393 2.062-0.785-0.196 0.785-0.687 1.375-1.375 1.767z"></path>
</symbol>
<symbol id="icon-youtube" viewBox="0 0 33 32">
<path d="M18.916 15.709l-4.124-2.356v4.713l4.124-2.356z"></path>
<path d="M0.654 15.709c0 8.676 7.033 15.709 15.709 15.709s15.709-7.033 15.709-15.709c0-8.676-7.033-15.709-15.709-15.709s-15.709 7.033-15.709 15.709zM22.45 10.506c0.687 0.196 1.178 0.687 1.375 1.374 0.393 1.276 0.393 3.829 0.393 3.829s0 2.553-0.295 3.829c-0.196 0.687-0.687 1.178-1.375 1.375-1.276 0.295-6.185 0.295-6.185 0.295s-5.007 0-6.185-0.295c-0.687-0.196-1.178-0.687-1.375-1.375-0.295-1.276-0.295-3.829-0.295-3.829s0-2.553 0.196-3.829c0.196-0.687 0.687-1.178 1.375-1.374 1.276-0.295 6.185-0.295 6.185-0.295s5.007 0 6.186 0.295z"></path>
</symbol>
</defs>
</svg>
