<svg width="48" height="47" viewBox="0 0 48 47" fill="none" xmlns="http://www.w3.org/2000/svg">
<path fill-rule="evenodd" clip-rule="evenodd" d="M0.986694 23.0728C0.986694 10.3301 11.3168 0 24.0595 0C36.8023 0 47.1324 10.3301 47.1324 23.0728C47.1324 35.8156 36.8023 46.1457 24.0595 46.1457C11.3168 46.1457 0.986694 35.8156 0.986694 23.0728ZM32.856 16.5836C33.8655 16.4394 34.7307 16.2952 35.5959 15.8626C35.0191 16.872 34.1539 17.7372 33.1445 18.3141C33.4329 25.0917 28.5299 32.4462 19.7334 32.4462C17.1377 32.4462 14.6862 31.5809 12.5231 30.2831C14.9746 30.5715 17.5703 29.8505 19.3008 28.5526C17.1377 28.5526 15.4072 27.1106 14.8304 25.2359C15.5514 25.3801 16.2724 25.2359 16.9935 25.0917C14.8304 24.5149 13.2441 22.496 13.2441 20.3329C13.9652 20.6213 14.6862 20.9098 15.4072 20.9098C13.3883 19.4677 12.6673 16.7278 13.9652 14.5647C16.4166 17.4488 19.8776 19.3235 23.7711 19.4677C23.0501 16.5836 25.3574 13.6995 28.3857 13.6995C29.6835 13.6995 30.9814 14.2763 31.8466 15.1415C33.0002 14.8531 34.0097 14.5647 34.8749 13.9879C34.5865 15.1415 33.8655 16.0068 32.856 16.5836Z" fill="black"/>
</svg>
