<svg width="48" height="47" viewBox="0 0 48 47" fill="none" xmlns="http://www.w3.org/2000/svg">
<path d="M27.7823 23.0728L21.7256 19.6119V26.5338L27.7823 23.0728Z" fill="black"/>
<path fill-rule="evenodd" clip-rule="evenodd" d="M0.960083 23.0728C0.960083 10.3301 11.2901 0 24.0329 0C36.7757 0 47.1057 10.3301 47.1057 23.0728C47.1057 35.8156 36.7757 46.1457 24.0329 46.1457C11.2901 46.1457 0.960083 35.8156 0.960083 23.0728ZM32.9737 15.43C33.9831 15.7184 34.7041 16.4394 34.9925 17.4488C35.5693 19.3235 35.5693 23.0728 35.5693 23.0728C35.5693 23.0728 35.5693 26.8222 35.1367 28.6968C34.8483 29.7063 34.1273 30.4273 33.1178 30.7157C31.2432 31.1483 24.0329 31.1483 24.0329 31.1483C24.0329 31.1483 16.6784 31.1483 14.948 30.7157C13.9385 30.4273 13.2175 29.7063 12.9291 28.6968C12.4965 26.8222 12.4965 23.0728 12.4965 23.0728C12.4965 23.0728 12.4965 19.3235 12.7849 17.4488C13.0733 16.4394 13.7944 15.7184 14.8038 15.43C16.6785 14.9973 23.8887 14.9973 23.8887 14.9973C23.8887 14.9973 31.2432 14.9973 32.9737 15.43Z" fill="black"/>
</svg>
